HIERARCHY
ROOT Hips
{
	OFFSET 0.000000 71.427986 0.000000
	CHANNELS 6 Xposition Yposition Zposition Xrotation Yrotation Zrotation
	JOINT Pelvis
	{
		OFFSET 0.000000 0.000000 0.000000
		CHANNELS 3 Xrotation Yrotation Zrotation
		JOINT LeftUpLeg
		{
			OFFSET 6.797100 -2.508499 -1.318700
			CHANNELS 3 Xrotation Yrotation Zrotation
			JOINT LeftLeg
			{
				OFFSET 0.069008 -29.241863 0.690200
				CHANNELS 3 Xrotation Yrotation Zrotation
				JOINT LeftFoot
				{
					OFFSET -0.069008 -29.568123 -0.266800
					CHANNELS 3 Xrotation Yrotation Zrotation
					JOINT LeftToeBase
					{
						OFFSET 3.145500 -8.631000 16.059900
						CHANNELS 3 Xrotation Yrotation Zrotation
						End Site
						{
							OFFSET 0.000000 18.501587 0.000000
						}
					}
				}
			}
			JOINT Left_ShortSleeve
			{
				OFFSET 0.265923 -10.480953 1.153800
				CHANNELS 3 Xrotation Yrotation Zrotation
				End Site
				{
					OFFSET 1.725763 19.823879 0.000000
				}
			}
		}
		JOINT RightUpLeg
		{
			OFFSET -6.797100 -2.508499 -1.318700
			CHANNELS 3 Xrotation Yrotation Zrotation
			JOINT RightLeg
			{
				OFFSET -0.082453 -29.241932 0.688000
				CHANNELS 3 Xrotation Yrotation Zrotation
				JOINT RightFoot
				{
					OFFSET 0.082453 -29.568058 -0.264600
					CHANNELS 3 Xrotation Yrotation Zrotation
					JOINT RightToeBase
					{
						OFFSET -3.115300 -8.682800 16.113400
						CHANNELS 3 Xrotation Yrotation Zrotation
						End Site
						{
							OFFSET 0.000000 18.567114 0.000000
						}
					}
				}
			}
			JOINT Right_ShortSleeve
			{
				OFFSET -0.265923 -10.480953 1.153800
				CHANNELS 3 Xrotation Yrotation Zrotation
				End Site
				{
					OFFSET -1.725766 19.823910 0.000000
				}
			}
		}
	}
	JOINT Spine
	{
		OFFSET 0.000000 13.368103 0.470500
		CHANNELS 3 Xrotation Yrotation Zrotation
		JOINT Spine1
		{
			OFFSET 0.147000 13.837402 0.538800
			CHANNELS 3 Xrotation Yrotation Zrotation
			JOINT Spine2
			{
				OFFSET 0.168000 16.242897 -1.435500
				CHANNELS 3 Xrotation Yrotation Zrotation
				JOINT Neck
				{
					OFFSET 0.217200 18.631500 -1.679100
					CHANNELS 3 Xrotation Yrotation Zrotation
					JOINT Head
					{
						OFFSET 0.000000 6.599396 1.385900
						CHANNELS 3 Xrotation Yrotation Zrotation
						JOINT Hat
						{
							OFFSET -0.532200 27.220596 -10.096100
							CHANNELS 3 Xrotation Yrotation Zrotation
							End Site
							{
								OFFSET 0.000000 22.029861 0.000000
							}
						}
						JOINT HairD
						{
							OFFSET -10.777400 17.437393 -1.325900
							CHANNELS 3 Xrotation Yrotation Zrotation
							JOINT HairD1
							{
								OFFSET -3.290299 -11.051193 1.062200
								CHANNELS 3 Xrotation Yrotation Zrotation
								End Site
								{
									OFFSET 0.000000 11.579437 0.000000
								}
							}
						}
						JOINT HairB
						{
							OFFSET -10.777400 17.437393 1.467900
							CHANNELS 3 Xrotation Yrotation Zrotation
							JOINT HairB1
							{
								OFFSET -1.561200 -12.956299 3.590200
								CHANNELS 3 Xrotation Yrotation Zrotation
								End Site
								{
									OFFSET 0.000000 13.534866 0.000000
								}
							}
						}
						JOINT HairA
						{
							OFFSET 9.713100 17.437393 1.467900
							CHANNELS 3 Xrotation Yrotation Zrotation
							JOINT HairA1
							{
								OFFSET 1.561200 -12.956299 3.590200
								CHANNELS 3 Xrotation Yrotation Zrotation
								End Site
								{
									OFFSET 0.000000 13.534866 0.000000
								}
							}
						}
						JOINT HairC
						{
							OFFSET 9.713100 17.437393 -1.325900
							CHANNELS 3 Xrotation Yrotation Zrotation
							JOINT HairC1
							{
								OFFSET 3.290300 -11.051193 1.062200
								CHANNELS 3 Xrotation Yrotation Zrotation
								End Site
								{
									OFFSET 0.000000 11.579437 0.000000
								}
							}
						}
					}
				}
				JOINT LeftShoulder
				{
					OFFSET 5.101800 15.108002 -2.763700
					CHANNELS 3 Xrotation Yrotation Zrotation
					JOINT LeftArm
					{
						OFFSET 9.825497 2.506317 -1.597400
						CHANNELS 3 Xrotation Yrotation Zrotation
						JOINT LeftForeArm
						{
							OFFSET 21.966244 0.000000 0.000000
							CHANNELS 3 Xrotation Yrotation Zrotation
							JOINT LeftHand
							{
								OFFSET 33.879036 0.000000 0.000000
								CHANNELS 3 Xrotation Yrotation Zrotation
								JOINT LeftHandThumb1
								{
									OFFSET 6.715286 -2.359680 3.363841
									CHANNELS 3 Xrotation Yrotation Zrotation
									JOINT LeftHandThumb2
									{
										OFFSET 2.507072 -1.447464 1.447461
										CHANNELS 3 Xrotation Yrotation Zrotation
										JOINT LeftHandThumb3
										{
											OFFSET 2.898338 -1.673355 1.673357
											CHANNELS 3 Xrotation Yrotation Zrotation
											End Site
											{
												OFFSET -0.295959 3.727692 -0.131651
											}
										}
									}
								}
								JOINT LeftHandIndex1
								{
									OFFSET 14.190811 -0.254547 3.840278
									CHANNELS 3 Xrotation Yrotation Zrotation
									JOINT LeftHandIndex2
									{
										OFFSET 3.551727 0.000000 -0.000000
										CHANNELS 3 Xrotation Yrotation Zrotation
										JOINT LeftHandIndex3
										{
											OFFSET 2.894196 0.000000 0.000000
											CHANNELS 3 Xrotation Yrotation Zrotation
											End Site
											{
												OFFSET -1.000603 2.690872 0.366626
											}
										}
									}
								}
								JOINT LeftHandMiddle1
								{
									OFFSET 13.776489 0.000000 0.000000
									CHANNELS 3 Xrotation Yrotation Zrotation
									JOINT LeftHandMiddle2
									{
										OFFSET 3.438232 0.000000 0.000000
										CHANNELS 3 Xrotation Yrotation Zrotation
										JOINT LeftHandMiddle3
										{
											OFFSET 3.691551 0.000000 0.000000
											CHANNELS 3 Xrotation Yrotation Zrotation
											End Site
											{
												OFFSET -1.082298 3.499527 0.457670
											}
										}
									}
								}
								JOINT LeftHandRing1
								{
									OFFSET 13.966164 -0.268127 -3.067488
									CHANNELS 3 Xrotation Yrotation Zrotation
									JOINT LeftHandRing2
									{
										OFFSET 3.162567 0.000000 0.000000
										CHANNELS 3 Xrotation Yrotation Zrotation
										JOINT LeftHandRing3
										{
											OFFSET 3.324348 0.000000 0.000000
											CHANNELS 3 Xrotation Yrotation Zrotation
											End Site
											{
												OFFSET -0.861900 3.184998 0.405154
											}
										}
									}
								}
								JOINT LeftHandPinky1
								{
									OFFSET 13.131393 -0.168503 -5.746925
									CHANNELS 3 Xrotation Yrotation Zrotation
									JOINT LeftHandPinky2
									{
										OFFSET 2.849182 0.000000 0.000000
										CHANNELS 3 Xrotation Yrotation Zrotation
										JOINT LeftHandPinky3
										{
											OFFSET 2.805038 0.000000 0.000000
											CHANNELS 3 Xrotation Yrotation Zrotation
											End Site
											{
												OFFSET -0.882500 2.642609 0.325652
											}
										}
									}
								}
							}
							JOINT Left_Sleeve
							{
								OFFSET 6.592125 -0.646545 0.805568
								CHANNELS 3 Xrotation Yrotation Zrotation
								End Site
								{
									OFFSET -0.000179 20.275787 -0.000000
								}
							}
						}
					}
				}
				JOINT RightShoulder
				{
					OFFSET -5.731700 15.108002 -2.763700
					CHANNELS 3 Xrotation Yrotation Zrotation
					JOINT RightArm
					{
						OFFSET -9.825497 2.506317 -1.597400
						CHANNELS 3 Xrotation Yrotation Zrotation
						JOINT RightForeArm
						{
							OFFSET -21.966242 0.000000 0.000000
							CHANNELS 3 Xrotation Yrotation Zrotation
							JOINT RightHand
							{
								OFFSET -33.879032 0.000000 0.000000
								CHANNELS 3 Xrotation Yrotation Zrotation
								JOINT RightHandThumb1
								{
									OFFSET -6.715286 -2.359680 3.363841
									CHANNELS 3 Xrotation Yrotation Zrotation
									JOINT RightHandThumb2
									{
										OFFSET -2.507072 -1.447464 1.447461
										CHANNELS 3 Xrotation Yrotation Zrotation
										JOINT RightHandThumb3
										{
											OFFSET -2.898338 -1.673355 1.673357
											CHANNELS 3 Xrotation Yrotation Zrotation
											End Site
											{
												OFFSET 0.295959 3.727692 -0.131651
											}
										}
									}
								}
								JOINT RightHandIndex1
								{
									OFFSET -14.190811 -0.254547 3.840278
									CHANNELS 3 Xrotation Yrotation Zrotation
									JOINT RightHandIndex2
									{
										OFFSET -3.551727 0.000000 -0.000000
										CHANNELS 3 Xrotation Yrotation Zrotation
										JOINT RightHandIndex3
										{
											OFFSET -2.894196 0.000000 0.000000
											CHANNELS 3 Xrotation Yrotation Zrotation
											End Site
											{
												OFFSET 1.000603 2.690872 0.366626
											}
										}
									}
								}
								JOINT RightHandMiddle1
								{
									OFFSET -13.776489 0.000000 0.000000
									CHANNELS 3 Xrotation Yrotation Zrotation
									JOINT RightHandMiddle2
									{
										OFFSET -3.438232 0.000000 0.000000
										CHANNELS 3 Xrotation Yrotation Zrotation
										JOINT RightHandMiddle3
										{
											OFFSET -3.691551 0.000000 0.000000
											CHANNELS 3 Xrotation Yrotation Zrotation
											End Site
											{
												OFFSET 1.082298 3.499527 0.457670
											}
										}
									}
								}
								JOINT RightHandRing1
								{
									OFFSET -13.966164 -0.268127 -3.067488
									CHANNELS 3 Xrotation Yrotation Zrotation
									JOINT RightHandRing2
									{
										OFFSET -3.162567 0.000000 0.000000
										CHANNELS 3 Xrotation Yrotation Zrotation
										JOINT RightHandRing3
										{
											OFFSET -3.324348 0.000000 0.000000
											CHANNELS 3 Xrotation Yrotation Zrotation
											End Site
											{
												OFFSET 0.861900 3.184998 0.405154
											}
										}
									}
								}
								JOINT RightHandPinky1
								{
									OFFSET -13.131393 -0.168503 -5.746925
									CHANNELS 3 Xrotation Yrotation Zrotation
									JOINT RightHandPinky2
									{
										OFFSET -2.849182 0.000000 0.000000
										CHANNELS 3 Xrotation Yrotation Zrotation
										JOINT RightHandPinky3
										{
											OFFSET -2.805038 0.000000 0.000000
											CHANNELS 3 Xrotation Yrotation Zrotation
											End Site
											{
												OFFSET 0.882500 2.642609 0.325652
											}
										}
									}
								}
							}
							JOINT Right_Sleeve
							{
								OFFSET -6.592125 -0.646545 0.805568
								CHANNELS 3 Xrotation Yrotation Zrotation
								End Site
								{
									OFFSET 0.000179 20.275787 -0.000000
								}
							}
						}
					}
				}
				JOINT Bind_Right_JacketString
				{
					OFFSET -3.534800 11.969597 7.200700
					CHANNELS 3 Xrotation Yrotation Zrotation
					JOINT Bind_Right_JacketString1
					{
						OFFSET -0.319900 -6.102600 2.794100
						CHANNELS 3 Xrotation Yrotation Zrotation
						End Site
						{
							OFFSET 0.000000 6.719452 0.000000
						}
					}
				}
				JOINT Bind_Left_JacketString
				{
					OFFSET 2.904800 11.969597 7.200700
					CHANNELS 3 Xrotation Yrotation Zrotation
					JOINT Bind_Left_JacketString1
					{
						OFFSET 0.364800 -5.904503 3.186800
						CHANNELS 3 Xrotation Yrotation Zrotation
						End Site
						{
							OFFSET 0.000000 6.719513 0.000000
						}
					}
				}
				JOINT HairE
				{
					OFFSET 5.915200 17.612701 -11.592200
					CHANNELS 3 Xrotation Yrotation Zrotation
					JOINT HairE1
					{
						OFFSET 0.289200 -7.171898 -1.284500
						CHANNELS 3 Xrotation Yrotation Zrotation
						End Site
						{
							OFFSET 0.000000 7.291756 0.000000
						}
					}
				}
				JOINT HairF
				{
					OFFSET -0.864800 17.612701 -11.592200
					CHANNELS 3 Xrotation Yrotation Zrotation
					JOINT HairF1
					{
						OFFSET 0.000000 -14.087097 -2.127501
						CHANNELS 3 Xrotation Yrotation Zrotation
						End Site
						{
							OFFSET 0.000000 14.246841 0.000000
						}
					}
				}
				JOINT HairG
				{
					OFFSET -8.087700 17.612701 -11.592200
					CHANNELS 3 Xrotation Yrotation Zrotation
					JOINT HairG1
					{
						OFFSET -0.293600 -6.081398 -0.910100
						CHANNELS 3 Xrotation Yrotation Zrotation
						End Site
						{
							OFFSET 0.000000 6.156120 0.000000
						}
					}
				}
			}
		}
	}
	JOINT Pouch
	{
		OFFSET 0.000000 4.394501 10.847300
		CHANNELS 3 Xrotation Yrotation Zrotation
		End Site
		{
			OFFSET 0.000000 21.880577 0.000000
		}
	}
	JOINT Bag
	{
		OFFSET -13.229000 4.813004 -0.593300
		CHANNELS 3 Xrotation Yrotation Zrotation
		End Site
		{
			OFFSET 0.000000 21.880577 0.000000
		}
	}
	JOINT OccupyGuyFacialAnim_Joint
	{
		OFFSET 1.000000 -70.206398 -1.655000
		CHANNELS 3 Xrotation Yrotation Zrotation
		End Site
		{
			OFFSET 0.000000 21.880577 0.000000
		}
	}
}
MOTION
Frames: 4
Frame Time: 0.016667
4.635561 69.307480 5.145631 -0.192735 19.126548 6.169637 -0.000000 0.000000 -0.000000 -16.589621 -6.568879 -5.225922 21.755776 0.604092 -4.535220 -5.664084 10.369120 1.327454 0.000000 0.000000 0.000000 -0.000001 0.000001 0.000000 1.035159 -11.170356 -13.423416 26.601384 -22.073191 1.358288 -8.412075 -31.581210 22.015626 -0.000000 0.000004 -0.000000 -0.000000 0.000001 -0.000001 0.069379 6.814763 10.840662 8.389054 6.747484 0.422352 0.206960 6.614098 0.368023 -13.227447 -19.480647 1.743809 5.179464 -17.358816 -2.364413 -0.000000 0.000000 -0.000001 -0.000000 0.000000 -0.000001 -0.000000 0.000000 -0.000002 -0.000000 0.000000 -0.000001 -0.000001 -0.000000 -0.000001 -0.000000 0.000000 -0.000001 -0.000001 -0.000000 -0.000001 -0.000000 0.000000 -0.000001 -0.000000 0.000000 -0.000001 -0.154065 9.312170 20.132353 -63.723411 6.157094 -31.462491 318.740804 -20.602974 373.295848 -53.062763 28.769727 30.735564 17.551631 -5.699188 -12.932307 10.850465 26.127712 8.644834 0.000000 -0.000000 0.000001 13.980912 1.201555 -55.004381 0.370808 1.161695 -65.441880 -0.000003 0.000003 -0.000001 7.504740 1.174487 -63.778510 1.807806 1.475664 -64.567923 0.000003 0.000000 -0.000001 8.574316 2.179099 -75.149006 -0.207655 1.009291 -57.855042 -0.000002 0.000000 -0.000002 10.030081 13.637067 -84.750251 0.877100 0.062312 -64.595503 -0.000001 -0.000001 -0.000001 0.000001 0.000002 0.000000 5.429959 9.442456 5.676209 15.856532 -66.495245 55.369912 -0.248989 19.228897 37.981535 72.680507 -1.056084 4.143546 15.788534 -2.734557 -17.205812 -2.832783 -29.366586 12.741430 -0.000001 0.000000 0.000000 3.460503 -3.220961 22.317863 -2.139071 -2.479443 34.133843 -0.000001 0.000001 -0.000001 -1.981751 -5.708797 28.547054 0.291809 -5.115391 57.918495 0.000002 0.000002 0.000001 -3.258544 -8.570289 35.335697 4.048574 -4.073940 65.874490 0.000000 0.000000 -0.000003 -5.950097 -17.426367 53.146808 10.727137 -2.565963 58.259437 -0.000003 -0.000001 -0.000001 -0.000000 -0.000001 -0.000000 0.000001 -0.000003 0.000001 0.000001 0.000001 -0.000000 0.000001 -0.000003 0.000001 0.000001 -0.000003 0.000001 0.000001 -0.000003 0.000001 0.000001 0.000001 -0.000000 0.000001 -0.000003 0.000001 0.000001 -0.000003 0.000001 0.000001 -0.000003 0.000001 0.000001 0.000001 -0.000000 -0.000000 0.000000 -0.000000 -0.000000 0.000000 -0.000000 -0.000000 0.000000 -0.000000 
4.677390 69.195236 5.288958 0.415265 23.935756 5.372676 0.000000 0.000002 0.000000 -18.512739 -9.481816 -5.537657 22.745329 -0.430377 -4.805817 -5.723469 9.553159 1.540507 0.000000 -0.000001 0.000000 -0.000003 0.000001 -0.000000 1.909671 -15.730887 -12.224337 25.212624 -21.464238 0.976445 -9.066404 -30.102215 21.948273 0.000000 0.000002 0.000000 0.000000 -0.000000 -0.000000 -1.164573 7.102186 10.930291 7.340192 7.401398 -0.347059 0.687533 7.224085 -0.473160 -14.981689 -22.379383 3.474326 6.383155 -19.162919 -1.752123 0.000001 0.000000 -0.000002 0.000001 0.000000 -0.000002 0.000001 0.000000 -0.000002 0.000001 0.000000 -0.000002 0.000000 0.000000 0.000000 0.000001 0.000000 -0.000002 0.000000 0.000000 0.000000 0.000001 0.000000 -0.000002 0.000001 0.000000 -0.000002 -0.958328 11.589818 16.054735 -66.492110 6.731942 -32.420917 309.931472 -20.341203 375.357171 -52.110139 22.279619 29.101828 17.551622 -5.699191 -12.932307 10.850465 26.127712 8.644838 -0.000003 0.000001 0.000001 13.980910 1.201555 -55.004377 0.370818 1.161696 -65.441880 0.000003 -0.000001 -0.000002 7.504733 1.174483 -63.778517 1.807805 1.475662 -64.567930 0.000002 0.000002 -0.000001 8.574308 2.179101 -75.148999 -0.207653 1.009293 -57.855042 0.000001 0.000001 0.000001 10.030078 13.637062 -84.750244 0.877106 0.062312 -64.595503 -0.000001 0.000003 -0.000004 0.000003 0.000001 0.000001 5.228956 9.723370 6.084441 10.668880 -68.209411 51.667502 -0.500515 18.866866 38.212354 79.163607 0.444234 3.903859 15.788522 -2.734521 -17.205808 -2.817461 -29.403698 12.657788 -0.000000 -0.000001 0.000000 3.434954 -3.235373 22.125542 -2.139763 -2.479362 33.905080 0.000000 -0.000001 0.000004 -1.981954 -5.708349 28.331290 0.291632 -5.115293 57.471609 -0.000000 -0.000000 -0.000001 -3.259475 -8.570078 34.996513 4.048356 -4.073845 65.399300 -0.000000 -0.000001 -0.000001 -6.000658 -17.333623 52.703891 10.727023 -2.565881 57.922887 -0.000001 0.000001 0.000001 -0.000000 -0.000001 0.000000 -0.000000 0.000001 -0.000000 -0.000000 0.000001 -0.000000 -0.000000 0.000001 -0.000001 -0.000000 0.000001 -0.000001 -0.000000 0.000001 -0.000000 -0.000000 0.000001 -0.000000 -0.000000 0.000001 -0.000001 -0.000000 0.000001 -0.000001 -0.000000 0.000001 -0.000000 -0.000000 0.000001 -0.000000 0.000000 0.000002 0.000000 0.000000 0.000002 0.000000 0.000000 0.000002 0.000000 
4.704278 69.073532 5.398869 1.097265 28.106310 4.625875 0.000000 0.000000 -0.000000 -20.375387 -12.240769 -6.050966 23.647016 -0.996531 -5.030695 -5.761168 8.788672 1.629426 0.000000 -0.000002 0.000000 0.000001 0.000000 -0.000000 2.618796 -20.506410 -11.305712 23.914618 -19.955642 0.684097 -10.010225 -28.428794 21.523593 -0.000000 -0.000001 0.000000 0.000001 -0.000001 0.000000 -2.208330 7.415393 10.668475 6.409503 8.037286 -1.007985 1.207257 7.779497 -1.226568 -16.665344 -24.736650 4.961174 7.292996 -20.429629 -1.343614 -0.000000 -0.000000 0.000000 -0.000000 -0.000000 0.000000 -0.000000 -0.000000 -0.000000 -0.000000 -0.000000 0.000000 -0.000001 0.000000 0.000002 -0.000000 -0.000000 0.000000 -0.000001 0.000000 0.000002 -0.000000 -0.000000 0.000000 -0.000000 -0.000000 0.000000 -1.386119 13.153981 11.553616 -68.111391 6.494232 -33.152406 305.017206 -21.210152 374.224125 -51.626241 18.333274 27.120502 17.551628 -5.699183 -12.932307 10.850469 26.127712 8.644837 -0.000001 0.000003 -0.000001 13.980911 1.201558 -55.004377 0.370811 1.161695 -65.441873 0.000000 -0.000002 -0.000002 7.504734 1.174486 -63.778510 1.807810 1.475665 -64.567930 -0.000002 -0.000001 0.000002 8.574310 2.179102 -75.148999 -0.207657 1.009293 -57.855049 0.000000 0.000000 0.000001 10.030080 13.637067 -84.750244 0.877101 0.062312 -64.595503 -0.000001 -0.000002 0.000001 0.000003 -0.000002 0.000003 5.052229 10.207456 6.320875 6.135777 -67.294534 48.041170 0.327631 18.396964 37.774573 83.008566 -0.368272 3.065873 15.788532 -2.734540 -17.205822 -2.808253 -29.432648 12.569106 -0.000000 -0.000001 0.000000 3.396516 -3.255159 21.917865 -2.140534 -2.479404 33.642230 -0.000001 0.000000 0.000004 -1.982225 -5.708089 28.088035 0.291443 -5.115167 56.979129 -0.000000 0.000000 -0.000001 -3.260381 -8.569896 34.620098 4.048116 -4.073735 64.869107 0.000001 -0.000000 -0.000001 -6.047913 -17.233595 52.206455 10.726883 -2.565869 57.544808 0.000001 0.000000 0.000002 0.000000 -0.000000 0.000000 0.000000 -0.000000 -0.000000 0.000001 0.000002 0.000000 0.000000 -0.000000 -0.000000 0.000000 -0.000000 -0.000000 0.000000 -0.000000 -0.000000 0.000001 0.000002 0.000000 0.000000 -0.000000 -0.000000 0.000000 -0.000000 -0.000000 0.000000 -0.000000 -0.000000 0.000001 0.000002 0.000000 0.000000 0.000000 -0.000000 0.000000 0.000000 -0.000000 0.000000 0.000000 -0.000000 
4.705029 68.962524 5.471932 1.753488 31.066467 4.059745 0.000000 0.000001 0.000000 -21.994147 -14.820025 -6.708064 24.275102 -1.734848 -5.243894 -5.809549 9.250428 1.643111 0.000000 -0.000001 0.000000 -0.000001 0.000001 0.000001 3.080444 -23.851369 -10.591397 22.978071 -18.948260 0.496617 -10.749874 -27.296383 21.165984 0.000000 0.000002 -0.000000 -0.000000 0.000000 -0.000000 -3.116158 7.750568 10.159567 5.554689 8.658324 -1.589352 1.738244 8.299222 -1.912933 -18.260209 -26.743030 6.305351 8.037610 -21.371751 -1.064213 -0.000000 -0.000000 0.000001 -0.000000 -0.000000 0.000001 -0.000000 -0.000000 0.000000 -0.000000 -0.000000 0.000001 -0.000001 -0.000000 0.000001 -0.000000 -0.000000 0.000001 -0.000001 -0.000000 0.000001 -0.000000 -0.000000 0.000001 -0.000000 -0.000000 0.000001 -1.577761 14.389627 6.973794 -69.478023 6.137862 -33.977958 302.849468 -21.535486 372.111657 -50.465488 13.830793 25.019668 17.551622 -5.699182 -12.932310 10.850466 26.127714 8.644842 0.000003 -0.000000 0.000002 13.980909 1.201555 -55.004374 0.370814 1.161691 -65.441880 -0.000000 0.000000 0.000002 7.504735 1.174484 -63.778517 1.807809 1.475661 -64.567930 0.000001 -0.000001 0.000000 8.574308 2.179102 -75.148999 -0.207650 1.009294 -57.855042 0.000007 0.000001 0.000000 10.030078 13.637067 -84.750251 0.877104 0.062314 -64.595510 -0.000001 -0.000002 0.000001 0.000000 -0.000001 0.000003 4.894000 10.841093 6.313582 4.878256 -64.300876 47.139111 1.435496 17.723762 37.243536 83.415809 -3.115100 2.073302 15.788517 -2.734544 -17.205829 -2.805474 -29.452766 12.475399 0.000000 0.000001 -0.000001 3.344304 -3.280463 21.694665 -2.141379 -2.479304 33.343915 0.000001 0.000000 0.000004 -1.982589 -5.707893 27.816415 0.291206 -5.115010 56.439984 0.000001 -0.000001 0.000001 -3.261285 -8.569683 34.205553 4.047820 -4.073590 64.282435 -0.000001 0.000000 -0.000001 -6.091003 -17.126348 51.652903 10.726722 -2.565695 57.123823 -0.000001 0.000001 -0.000001 0.000001 0.000001 -0.000000 -0.000001 0.000000 0.000000 -0.000001 0.000002 0.000000 -0.000001 0.000000 0.000000 -0.000001 0.000000 0.000000 -0.000001 0.000000 0.000000 -0.000001 0.000002 0.000001 -0.000001 0.000000 0.000000 -0.000001 0.000000 0.000000 -0.000001 0.000000 0.000000 -0.000001 0.000002 0.000001 0.000000 0.000001 0.000000 0.000000 0.000001 0.000000 0.000000 0.000001 0.000000 
